<?xml version="1.0" encoding="utf-8"?>
<!-- Generator: Adobe Illustrator 16.0.0, SVG Export Plug-In . SVG Version: 6.00 Build 0)  -->
<!DOCTYPE svg PUBLIC "-//W3C//DTD SVG 1.1//EN" "http://www.w3.org/Graphics/SVG/1.1/DTD/svg11.dtd">
<svg version="1.1" id="Layer_1" xmlns="http://www.w3.org/2000/svg" xmlns:xlink="http://www.w3.org/1999/xlink" x="0px" y="0px"
	 width="18px" height="18px" viewBox="0 0 112 112" enable-background="new 0 0 112 112" xml:space="preserve">
<g>
	<path d="M80.434,89.338c-3.463,4.299-8.061,7.403-13.792,9.314v12.837H50.163V99.13c-6.607-1.433-11.583-4.199-14.926-8.299
		c-3.582-4.458-5.374-9.812-5.374-16.062H50.76c0.358,5.813,2.766,8.718,7.225,8.718c4.657,0,6.985-2.408,6.985-7.225
		c0-3.264-1.791-5.95-5.373-8.061c-1.313-0.796-3.145-1.672-5.493-2.627l-6.329-2.567c-2.507-1.074-4.618-2.129-6.329-3.164
		c-2.189-1.353-4.021-2.826-5.493-4.419c-3.582-3.94-5.373-9.055-5.373-15.344c0-12.896,6.527-21.136,19.583-24.718V3.003h16.479
		v12.359c11.503,2.667,17.175,10.209,17.016,22.628v0.597H64.731c-0.319-5.135-2.567-7.702-6.747-7.702
		c-4.418,0-6.627,2.29-6.627,6.866c0,3.224,2.05,5.991,6.15,8.299c1.433,0.797,3.243,1.612,5.433,2.448l4.956,1.851
		c5.453,2.11,9.731,5.075,12.837,8.896c3.423,4.141,5.135,8.996,5.135,14.568C85.867,79.666,84.055,84.841,80.434,89.338z"/>
</g>
</svg>
