<?xml version="1.0" encoding="utf-8"?>
<!-- Generator: Adobe Illustrator 16.0.0, SVG Export Plug-In . SVG Version: 6.00 Build 0)  -->
<!DOCTYPE svg PUBLIC "-//W3C//DTD SVG 1.1//EN" "http://www.w3.org/Graphics/SVG/1.1/DTD/svg11.dtd">
<svg version="1.1" xmlns="http://www.w3.org/2000/svg" xmlns:xlink="http://www.w3.org/1999/xlink" x="0px" y="0px" width="18px"
	 height="18px" viewBox="0 0 112 112" enable-background="new 0 0 112 112" xml:space="preserve">
<g id="Layer_1" display="none">
	<g display="inline">
		<path fill="#585858" d="M51.228,77.339c0-3.105-1.015-5.674-3.043-7.702s-5.492-3.901-10.389-5.619
			c-7.749-2.485-13.56-5.601-17.434-9.348c-3.875-3.746-5.811-8.854-5.811-15.323c0-6.104,1.845-11.102,5.537-14.994
			c3.691-3.893,8.752-6.204,15.186-6.935V5.466h8.717v12.061c6.359,0.841,11.293,3.363,14.802,7.565
			c3.509,4.204,5.226,9.741,5.153,16.611l-0.165,0.274H50.899c0-4.239-1.023-7.593-3.07-10.06c-2.047-2.467-4.916-3.701-8.607-3.701
			c-3.874,0-6.743,0.997-8.607,2.988c-1.864,1.993-2.796,4.669-2.796,8.032c0,3.144,0.968,5.666,2.905,7.565
			c1.937,1.901,5.519,3.82,10.746,5.756C49.217,55.081,55,58.206,58.82,61.934c3.818,3.729,5.729,8.827,5.729,15.296
			c0,6.323-1.928,11.367-5.783,15.131c-3.856,3.765-9.147,5.994-15.871,6.688v10.69h-8.717V99.104
			c-6.579-0.657-11.998-2.979-16.255-6.962c-4.258-3.983-6.314-9.85-6.167-17.599l0.109-0.273h12.883
			c0,5.08,1.279,8.698,3.838,10.854c2.558,2.157,5.792,3.234,9.704,3.234c4.167,0,7.364-0.986,9.594-2.96
			S51.228,80.738,51.228,77.339z"/>
	</g>
	<g display="inline">
		<path fill="#585858" d="M90.904,25.964h11.369v9.635H90.904v13.036H80.403V35.599H69.001v-9.635h11.402V13.296h10.501V25.964z"/>
	</g>
	<g display="inline">
		<path fill="#585858" d="M101.105,33.87H71.001v-8.368h30.104V33.87z"/>
	</g>
</g>
<g id="Layer_1_copy">
	<g>
		<path fill="#2283C5" d="M101.105,33.87H71.001v-8.368h30.104V33.87z"/>
	</g>
	<g display="none">
		<path display="inline" fill="#2283C5" d="M90.904,25.964h11.369v9.635H90.904v13.036H80.403V35.599H69.001v-9.635h11.402V13.296
			h10.501V25.964z"/>
	</g>
	<g>
		<path fill="#2283C5" d="M51.228,77.339c0-3.105-1.015-5.674-3.043-7.702s-5.492-3.901-10.389-5.619
			c-7.749-2.485-13.56-5.601-17.434-9.348c-3.875-3.746-5.811-8.854-5.811-15.323c0-6.104,1.845-11.102,5.537-14.994
			c3.691-3.893,8.752-6.204,15.186-6.935V5.466h8.717v12.061c6.359,0.841,11.293,3.363,14.802,7.565
			c3.509,4.204,5.226,9.741,5.153,16.611l-0.165,0.274H50.899c0-4.239-1.023-7.593-3.07-10.06c-2.047-2.467-4.916-3.701-8.607-3.701
			c-3.874,0-6.743,0.997-8.607,2.988c-1.864,1.993-2.796,4.669-2.796,8.032c0,3.144,0.968,5.666,2.905,7.565
			c1.937,1.901,5.519,3.82,10.746,5.756C49.217,55.081,55,58.206,58.82,61.934c3.818,3.729,5.729,8.827,5.729,15.296
			c0,6.323-1.928,11.367-5.783,15.131c-3.856,3.765-9.147,5.994-15.871,6.688v10.69h-8.717V99.104
			c-6.579-0.657-11.998-2.979-16.255-6.962c-4.258-3.983-6.314-9.85-6.167-17.599l0.109-0.273h12.883
			c0,5.08,1.279,8.698,3.838,10.854c2.558,2.157,5.792,3.234,9.704,3.234c4.167,0,7.364-0.986,9.594-2.96
			S51.228,80.738,51.228,77.339z"/>
	</g>
</g>
</svg>
