<?xml version="1.0" encoding="utf-8"?>
<!-- Generator: Adobe Illustrator 16.0.0, SVG Export Plug-In . SVG Version: 6.00 Build 0)  -->
<!DOCTYPE svg PUBLIC "-//W3C//DTD SVG 1.1//EN" "http://www.w3.org/Graphics/SVG/1.1/DTD/svg11.dtd">
<svg version="1.1" id="Capa_1" xmlns="http://www.w3.org/2000/svg" xmlns:xlink="http://www.w3.org/1999/xlink" x="0px" y="0px"
	 width="20px" height="20px" viewBox="0 0 20 20" enable-background="new 0 0 20 20" xml:space="preserve">
<g>
	<g>
		<path fill="#585858" d="M0.616,16.826H4.53c0.341,0,0.617-0.277,0.617-0.616V3.209c0-0.341-0.277-0.616-0.617-0.616H0.616
			C0.277,2.594,0,2.87,0,3.209V16.21C0,16.549,0.277,16.826,0.616,16.826z M1.085,3.728h2.977v5.681H1.085V3.728z M2.575,12.583
			c0.9,0,1.629,0.728,1.629,1.626c0,0.903-0.729,1.631-1.629,1.631c-0.899,0-1.63-0.728-1.63-1.631
			C0.945,13.311,1.673,12.583,2.575,12.583z"/>
		<path fill="#585858" d="M10.533,16.826c0.341,0,0.616-0.277,0.616-0.616V3.209c0-0.341-0.275-0.616-0.616-0.616H6.618
			c-0.34,0-0.616,0.275-0.616,0.616V16.21c0,0.337,0.276,0.616,0.616,0.616H10.533L10.533,16.826z M7.087,3.728h2.977v5.681H7.087
			V3.728z M8.577,12.583c0.9,0,1.631,0.728,1.631,1.626c0,0.903-0.729,1.631-1.631,1.631c-0.901,0-1.63-0.728-1.63-1.631
			C6.944,13.311,7.674,12.583,8.577,12.583z"/>
		<path fill="#585858" d="M16.868,2.547c-0.079-0.331-0.415-0.535-0.746-0.454l-3.804,0.928c-0.331,0.08-0.534,0.415-0.452,0.746
			l3.084,12.629c0.079,0.331,0.414,0.533,0.745,0.451l3.805-0.929c0.332-0.079,0.535-0.413,0.451-0.746L16.868,2.547z M14.391,9.529
			l-1.346-5.52l2.89-0.704l1.347,5.518L14.391,9.529z M17.363,15.427c-0.874,0.211-1.758-0.322-1.969-1.196
			c-0.215-0.875,0.32-1.757,1.195-1.97c0.874-0.213,1.758,0.322,1.969,1.195C18.773,14.332,18.238,15.215,17.363,15.427z"/>
	</g>
</g>
</svg>
