<?xml version="1.0" encoding="utf-8"?>
<!-- Generator: Adobe Illustrator 16.0.0, SVG Export Plug-In . SVG Version: 6.00 Build 0)  -->
<!DOCTYPE svg PUBLIC "-//W3C//DTD SVG 1.1//EN" "http://www.w3.org/Graphics/SVG/1.1/DTD/svg11.dtd">
<svg version="1.1" id="Capa_1" xmlns="http://www.w3.org/2000/svg" xmlns:xlink="http://www.w3.org/1999/xlink" x="0px" y="0px"
	 width="20px" height="20px" viewBox="0 0 20 20" enable-background="new 0 0 20 20" xml:space="preserve">
<g>
	<g>
		<path fill="#0B6CBC" d="M0.617,16.841h3.919c0.34,0,0.617-0.276,0.617-0.617V3.211c0-0.341-0.277-0.617-0.617-0.617H0.617
			C0.276,2.594,0,2.87,0,3.211v13.013C0,16.564,0.276,16.841,0.617,16.841z M1.087,3.729h2.98v5.687h-2.98V3.729z M2.577,12.593
			c0.901,0,1.632,0.73,1.632,1.631c0,0.901-0.729,1.631-1.632,1.631c-0.901,0-1.631-0.729-1.631-1.631
			C0.946,13.323,1.675,12.593,2.577,12.593z"/>
		<path fill="#0B6CBC" d="M10.543,16.841c0.341,0,0.617-0.276,0.617-0.617V3.211c0-0.341-0.276-0.617-0.617-0.617H6.625
			c-0.342,0-0.617,0.277-0.617,0.617v13.013c0,0.339,0.276,0.617,0.617,0.617H10.543L10.543,16.841z M7.095,3.729h2.979v5.687H7.095
			V3.729z M8.585,12.593c0.9,0,1.633,0.73,1.633,1.631c0,0.901-0.731,1.631-1.633,1.631c-0.902,0-1.631-0.729-1.631-1.631
			C6.952,13.323,7.683,12.593,8.585,12.593z"/>
		<path fill="#0B6CBC" d="M16.885,2.547c-0.079-0.331-0.415-0.536-0.747-0.455l-3.807,0.931C12,3.102,11.794,3.437,11.877,3.768
			l3.088,12.641c0.079,0.332,0.415,0.535,0.746,0.451l3.808-0.928c0.332-0.08,0.534-0.414,0.451-0.746L16.885,2.547z M14.404,9.537
			l-1.347-5.524l2.892-0.706l1.35,5.524L14.404,9.537z M17.38,15.441c-0.875,0.212-1.756-0.322-1.972-1.196
			c-0.216-0.876,0.322-1.759,1.197-1.975c0.876-0.212,1.759,0.322,1.972,1.198C18.791,14.344,18.256,15.228,17.38,15.441z"/>
	</g>
</g>
</svg>
