<?xml version="1.0" encoding="utf-8"?>
<!-- Generator: Adobe Illustrator 16.0.0, SVG Export Plug-In . SVG Version: 6.00 Build 0)  -->
<!DOCTYPE svg PUBLIC "-//W3C//DTD SVG 1.1//EN" "http://www.w3.org/Graphics/SVG/1.1/DTD/svg11.dtd">
<svg version="1.1" id="Capa_1" xmlns="http://www.w3.org/2000/svg" xmlns:xlink="http://www.w3.org/1999/xlink" x="0px" y="0px"
	 width="18px" height="18px" viewBox="0 0 18 18" enable-background="new 0 0 18 18" xml:space="preserve">
<g>
	<g>
		<g>
			<polygon fill="#585858" points="15.643,13.428 6.424,13.428 2.549,4.572 0.144,4.572 0.144,3.465 3.273,3.465 7.148,12.32 
				15.643,12.32 			"/>
		</g>
		<path fill="#585858" d="M10.107,16.195c0,0.916-0.744,1.66-1.661,1.66s-1.66-0.744-1.66-1.66s0.743-1.66,1.66-1.66
			S10.107,15.279,10.107,16.195z"/>
		<path fill="#585858" d="M15.643,16.195c0,0.916-0.744,1.66-1.66,1.66c-0.918,0-1.662-0.744-1.662-1.66s0.744-1.66,1.662-1.66
			C14.898,14.535,15.643,15.279,15.643,16.195z"/>
		<path fill="#585858" d="M13.982,9C11.82,9,9.994,7.607,9.306,5.679H5.679l2.214,5.536h7.75l1.277-3.194
			C16.094,8.628,15.084,9,13.982,9z"/>
		<g>
			<path fill="#585858" d="M13.982,0.144c-2.141,0-3.875,1.735-3.875,3.875c0,2.139,1.734,3.875,3.875,3.875
				c2.139,0,3.873-1.735,3.873-3.875C17.855,1.879,16.121,0.144,13.982,0.144z M13.395,5.975l-0.783-0.782l-1.174-1.174l0.783-0.783
				l1.174,1.174l2.348-2.348l0.783,0.783L13.395,5.975z"/>
		</g>
	</g>
</g>
</svg>
