<?xml version="1.0" encoding="utf-8"?>
<!-- Generator: Adobe Illustrator 16.0.0, SVG Export Plug-In . SVG Version: 6.00 Build 0)  -->
<!DOCTYPE svg PUBLIC "-//W3C//DTD SVG 1.1//EN" "http://www.w3.org/Graphics/SVG/1.1/DTD/svg11.dtd">
<svg version="1.1" id="Capa_1" xmlns="http://www.w3.org/2000/svg" xmlns:xlink="http://www.w3.org/1999/xlink" x="0px" y="0px"
	 width="20px" height="20px" viewBox="0 0 20 20" enable-background="new 0 0 20 20" xml:space="preserve">
<g>
	<path fill="#585858" d="M5.655,3.535c0-1.377,1.115-2.494,2.493-2.494c1.376,0,2.493,1.116,2.493,2.494
		c0,1.376-1.117,2.493-2.493,2.493C6.771,6.027,5.655,4.912,5.655,3.535z M9.346,7.726c0.025-0.542,0.212-1.045,0.513-1.46
		C9.648,6.221,9.43,6.197,9.206,6.197H7.091c-0.223,0-0.441,0.023-0.651,0.067C6.76,6.709,6.951,7.25,6.954,7.836
		C7.343,7.623,7.79,7.501,8.263,7.501C8.647,7.502,9.014,7.581,9.346,7.726z M9.768,7.95c0.725,0.455,1.232,1.223,1.326,2.115
		c0.296,0.138,0.622,0.217,0.971,0.217c1.267,0,2.297-1.028,2.297-2.297c0-1.271-1.03-2.298-2.297-2.298
		C10.808,5.687,9.787,6.698,9.768,7.95z M8.264,12.652c1.268,0,2.295-1.027,2.295-2.297c0-1.268-1.028-2.297-2.295-2.297
		c-1.269,0-2.297,1.029-2.297,2.297C5.966,11.625,6.994,12.652,8.264,12.652z M9.237,12.809H7.289c-1.622,0-2.941,1.321-2.941,2.941
		v2.385l0.005,0.036l0.164,0.052c1.548,0.483,2.893,0.646,4,0.646c2.162,0,3.416-0.616,3.491-0.656l0.156-0.077h0.016V15.75
		C12.179,14.13,10.858,12.809,9.237,12.809z M13.038,10.438h-1.934c-0.022,0.773-0.353,1.471-0.874,1.973
		c1.44,0.429,2.497,1.765,2.497,3.345v0.733c1.907-0.071,3.01-0.611,3.082-0.647l0.153-0.078h0.018V13.38
		C15.98,11.757,14.659,10.438,13.038,10.438z M13.555,5.638c0.724,0.455,1.234,1.225,1.325,2.116
		c0.296,0.138,0.624,0.216,0.971,0.216c1.27,0,2.298-1.028,2.298-2.297c0-1.268-1.028-2.297-2.298-2.297
		C14.593,3.376,13.574,4.386,13.555,5.638z M16.824,8.127h-1.934c-0.02,0.774-0.35,1.471-0.873,1.972
		c1.441,0.429,2.496,1.765,2.496,3.344v0.735c1.909-0.071,3.011-0.613,3.083-0.65l0.153-0.075h0.019v-2.385
		C19.767,9.446,18.447,8.127,16.824,8.127z M4.233,10.282c0.449,0,0.867-0.131,1.221-0.354C5.567,9.193,5.96,8.551,6.522,8.113
		C6.524,8.069,6.53,8.028,6.53,7.985c0-1.271-1.029-2.298-2.296-2.298c-1.27,0-2.297,1.028-2.297,2.298
		C1.937,9.253,2.963,10.282,4.233,10.282z M6.295,12.409c-0.52-0.498-0.849-1.191-0.873-1.96c-0.071-0.005-0.143-0.011-0.215-0.011
		H3.258c-1.622,0-2.941,1.32-2.941,2.941v2.384l0.005,0.038l0.164,0.05c1.243,0.39,2.35,0.566,3.313,0.623v-0.719
		C3.8,14.176,4.854,12.839,6.295,12.409z"/>
</g>
</svg>
