<?xml version="1.0" encoding="utf-8"?>
<!-- Generator: Adobe Illustrator 16.0.0, SVG Export Plug-In . SVG Version: 6.00 Build 0)  -->
<!DOCTYPE svg PUBLIC "-//W3C//DTD SVG 1.1//EN" "http://www.w3.org/Graphics/SVG/1.1/DTD/svg11.dtd">
<svg version="1.1" id="Capa_1" xmlns="http://www.w3.org/2000/svg" xmlns:xlink="http://www.w3.org/1999/xlink" x="0px" y="0px"
	 width="20px" height="20px" viewBox="0 0 20 20" enable-background="new 0 0 20 20" xml:space="preserve">
<g>
	<g id="Layer_1_155_">
		<g>
			<path fill="#0B6CBC" d="M11.132,3.652H4.41c-0.495,0-0.896,0.401-0.896,0.896c0,0.495,0.401,0.896,0.896,0.896h6.722
				c0.496,0,0.896-0.401,0.896-0.896C12.027,4.053,11.627,3.652,11.132,3.652z"/>
			<path fill="#0B6CBC" d="M12.027,7.909c0-0.495-0.4-0.896-0.896-0.896H4.41c-0.495,0-0.896,0.401-0.896,0.896
				c0,0.495,0.401,0.896,0.896,0.896h6.722C11.627,8.805,12.027,8.403,12.027,7.909z"/>
			<path fill="#0B6CBC" d="M7.771,12.166c0.496,0,0.896-0.402,0.896-0.896s-0.401-0.896-0.896-0.896H4.41
				c-0.495,0-0.896,0.402-0.896,0.896c0,0.496,0.401,0.896,0.896,0.896H7.771z"/>
			<path fill="#0B6CBC" d="M14.537,15.215l-0.94,0.619v2.232H1.945V1.934h11.651v3.542l1.792-3.105V1.037
				c0-0.495-0.401-0.896-0.896-0.896H1.049c-0.495,0-0.896,0.401-0.896,0.896v17.926c0,0.494,0.401,0.896,0.896,0.896h13.443
				c0.496,0,0.897-0.402,0.897-0.896v-4.939l-0.428,0.74C14.856,14.945,14.71,15.1,14.537,15.215z"/>
			<path fill="#0B6CBC" d="M19.836,4.292c-0.019-0.081-0.207-0.805-1.348-1.463c-1.14-0.659-1.861-0.46-1.942-0.436
				C16.44,2.427,16.35,2.5,16.294,2.597l-5.602,9.702c-0.035,0.061-0.056,0.129-0.06,0.197l-0.21,3.502
				c-0.01,0.168,0.076,0.328,0.223,0.414c0.147,0.084,0.329,0.078,0.471-0.014l2.927-1.932c0.059-0.037,0.107-0.09,0.143-0.15
				l5.602-9.703C19.843,4.516,19.86,4.402,19.836,4.292z M12.245,14.848c-0.148-0.121-0.317-0.234-0.499-0.34
				s-0.365-0.193-0.544-0.264l0.063-1.051c0.233,0.033,0.58,0.127,1.021,0.381c0.439,0.254,0.693,0.506,0.838,0.693L12.245,14.848z"
				/>
			<path fill="#0B6CBC" d="M6.401,16.307c0.029,0.18,0.237,0.236,0.376,0.293c0.134,0.059,0.294-0.051,0.406-0.104
				c0.684-0.334,1.61,0.059,2.343,0.059c0.433,0,0.433-0.672,0-0.672c-0.854,0-1.564-0.217-2.411-0.078
				c0-0.049-0.018-0.115-0.071-0.205c-0.158-0.27-0.359-0.348-0.562-0.314c-0.013-0.031-0.026-0.064-0.045-0.096
				c-0.053-0.086-0.127-0.129-0.21-0.148c0.237-0.412,0.39-0.85,0.234-1.201c-0.047-0.109-0.182-0.164-0.29-0.168
				c-0.449-0.018-0.834,0.455-1.123,0.736c-0.722,0.709-1.357,1.512-1.973,2.313c-0.264,0.344,0.32,0.678,0.58,0.34
				c0.546-0.709,1.123-1.396,1.745-2.039c-0.15,0.246-0.309,0.486-0.477,0.719c-0.239,0.369,0.332,0.684,0.581,0.34
				c0.059-0.09,0.134-0.156,0.216-0.211c-0.016,0.041-0.033,0.082-0.049,0.123c0,0,0.001,0,0.002,0.002
				c-0.013,0.027-0.026,0.053-0.037,0.08c-0.15,0.375,0.411,0.547,0.615,0.258c0.051-0.074,0.1-0.152,0.143-0.232
				C6.39,16.154,6.389,16.23,6.401,16.307z"/>
		</g>
	</g>
</g>
</svg>
