<?xml version="1.0" encoding="utf-8"?>
<!-- Generator: Adobe Illustrator 16.0.0, SVG Export Plug-In . SVG Version: 6.00 Build 0)  -->
<!DOCTYPE svg PUBLIC "-//W3C//DTD SVG 1.1//EN" "http://www.w3.org/Graphics/SVG/1.1/DTD/svg11.dtd">
<svg version="1.1" id="Capa_1" xmlns="http://www.w3.org/2000/svg" xmlns:xlink="http://www.w3.org/1999/xlink" x="0px" y="0px"
	 width="16px" height="16px" viewBox="0 0 16 16" enable-background="new 0 0 16 16" xml:space="preserve">
<g>
	<path fill="#585858" d="M14.76,4.337l-1.072-0.214c-0.055-0.062-0.121-0.112-0.195-0.147c0.084-0.095,0.156-0.19,0.211-0.269
		c0.131-0.19,0.24-0.395,0.316-0.593c0.037-0.083,0.068-0.167,0.094-0.25c0.102-0.085,0.162-0.213,0.162-0.347V2.19
		c0-0.094-0.029-0.186-0.084-0.262V1.467C14.191,0.658,13.533,0,12.725,0h-0.477c-0.809,0-1.467,0.658-1.467,1.467v0.461
		c-0.054,0.077-0.084,0.168-0.084,0.262v0.328c0,0.134,0.061,0.261,0.162,0.347c0.025,0.082,0.058,0.166,0.095,0.25
		c0.075,0.198,0.185,0.403,0.316,0.593c0.055,0.079,0.126,0.175,0.211,0.27c-0.074,0.035-0.14,0.085-0.194,0.146l-1.051,0.213
		c-0.006,0.008-0.012,0.016-0.018,0.023c-0.02,0.051-0.04,0.101-0.062,0.15c-0.028,0.073-0.061,0.146-0.096,0.22l0.338,0.067
		c0.599,0.12,1.032,0.65,1.032,1.26v3.875c0,0.128-0.018,0.253-0.055,0.374v0.302c0,0.509-0.316,0.946-0.762,1.124v2.194
		c0,0.52,0.421,0.94,0.94,0.94c0.519,0,0.94-0.421,0.94-0.94c0,0.52,0.421,0.94,0.94,0.94c0.519,0,0.94-0.421,0.94-0.94V9.914
		C14.459,9.969,14.557,10,14.662,10c0.29,0,0.524-0.234,0.524-0.523V9.051c0.035-0.076,0.056-0.161,0.056-0.25V4.925
		C15.242,4.639,15.04,4.394,14.76,4.337z M12.205,5.319C12.201,5.358,12.174,5.39,12.137,5.4c-0.009,0.002-0.017,0.003-0.025,0.003
		c-0.029,0-0.057-0.014-0.075-0.038l-0.265-0.351C11.76,5,11.753,4.979,11.753,4.959l0.001-0.562c0-0.033,0.018-0.063,0.045-0.081
		c0.028-0.017,0.063-0.018,0.093-0.002c0.077,0.041,0.153,0.068,0.228,0.081c0.045,0.008,0.078,0.047,0.078,0.093v0.234
		c0.014,0.005,0.025,0.014,0.035,0.024c0.018,0.02,0.027,0.046,0.023,0.073L12.205,5.319z M13.2,5.016l-0.264,0.351
		c-0.019,0.024-0.046,0.038-0.075,0.038c-0.008,0-0.017-0.001-0.025-0.003c-0.037-0.011-0.064-0.042-0.068-0.081l-0.051-0.5
		c-0.003-0.026,0.006-0.053,0.023-0.072c0.01-0.011,0.021-0.02,0.035-0.025V4.488c0-0.045,0.033-0.084,0.078-0.092
		c0.074-0.013,0.15-0.041,0.228-0.082c0.03-0.015,0.064-0.014,0.093,0.003s0.045,0.047,0.045,0.081v0.562
		C13.219,4.979,13.213,5,13.2,5.016z M13.296,3.415c-0.229,0.333-0.445,0.483-0.558,0.483h-0.504c-0.112,0-0.328-0.149-0.558-0.483
		c-0.182-0.263-0.308-0.554-0.337-0.779l-0.006-0.039l-0.091-0.059C11.217,2.521,11.2,2.491,11.2,2.459V2.304
		c0-0.052,0.042-0.094,0.095-0.094h0.037V2.042c0-0.036,0.021-0.068,0.053-0.084c0.129-0.064,0.387-0.173,0.652-0.173
		c0.212,0,0.389,0.071,0.523,0.21c0.168,0.174,0.361,0.262,0.574,0.262c0.122,0,0.247-0.029,0.373-0.085
		c0.029-0.013,0.063-0.011,0.09,0.007c0.012,0.008,0.022,0.019,0.029,0.031h0.052c0.052,0,0.095,0.042,0.095,0.094v0.155
		c0,0.032-0.018,0.062-0.043,0.079l-0.092,0.06l-0.006,0.039C13.604,2.861,13.478,3.152,13.296,3.415z"/>
	<path fill="#585858" d="M4.623,10.608v-0.303c-0.037-0.12-0.055-0.245-0.055-0.373V6.057c0-0.609,0.433-1.139,1.03-1.26L5.92,4.732
		C5.885,4.658,5.853,4.583,5.824,4.51c-0.022-0.05-0.042-0.1-0.062-0.15C5.756,4.351,5.749,4.341,5.742,4.333L4.696,4.123
		C4.642,4.061,4.575,4.011,4.5,3.976c0.084-0.094,0.156-0.19,0.21-0.269c0.131-0.19,0.24-0.395,0.316-0.593
		c0.037-0.083,0.068-0.167,0.095-0.25c0.102-0.085,0.161-0.213,0.161-0.347V2.19c0-0.094-0.029-0.186-0.083-0.262V1.467
		C5.2,0.658,4.542,0,3.732,0H3.257C2.448,0,1.79,0.658,1.79,1.467v0.461C1.735,2.005,1.706,2.097,1.706,2.19v0.328
		c0,0.134,0.06,0.261,0.162,0.347c0.026,0.082,0.058,0.166,0.095,0.25c0.076,0.198,0.185,0.403,0.316,0.593
		c0.054,0.079,0.126,0.175,0.211,0.27C2.416,4.012,2.349,4.062,2.295,4.123L1.238,4.337c-0.279,0.056-0.48,0.302-0.48,0.587v3.876
		c0,0.089,0.02,0.174,0.055,0.25v0.426C0.813,9.766,1.048,10,1.337,10c0.105,0,0.204-0.031,0.286-0.086v4.014
		c0,0.519,0.421,0.939,0.94,0.939c0.519,0,0.94-0.421,0.94-0.939c0,0.519,0.421,0.939,0.941,0.939c0.519,0,0.94-0.421,0.94-0.939
		v-2.195C4.939,11.555,4.623,11.117,4.623,10.608z M3.213,5.319C3.209,5.358,3.182,5.39,3.145,5.4
		C3.137,5.403,3.128,5.404,3.12,5.404c-0.029,0-0.057-0.014-0.075-0.038L2.78,5.016C2.768,5,2.762,4.979,2.762,4.959V4.397
		c0-0.033,0.018-0.063,0.046-0.081C2.835,4.3,2.871,4.299,2.9,4.314c0.077,0.041,0.154,0.068,0.228,0.081
		c0.045,0.008,0.078,0.047,0.078,0.093v0.234c0.014,0.005,0.025,0.014,0.036,0.024c0.018,0.02,0.026,0.046,0.023,0.073L3.213,5.319z
		 M4.208,5.016L3.945,5.366C3.927,5.39,3.899,5.404,3.87,5.404c-0.008,0-0.017-0.001-0.025-0.003C3.807,5.39,3.78,5.358,3.776,5.319
		l-0.052-0.5C3.722,4.793,3.73,4.767,3.749,4.747c0.01-0.011,0.021-0.02,0.036-0.025V4.488c0-0.045,0.033-0.084,0.077-0.092
		C3.936,4.382,4.013,4.355,4.09,4.314C4.119,4.299,4.154,4.3,4.182,4.317s0.045,0.047,0.045,0.081v0.562
		C4.228,4.979,4.221,5,4.208,5.016z M4.304,3.415c-0.23,0.333-0.445,0.483-0.557,0.483H3.242c-0.112,0-0.327-0.149-0.557-0.483
		C2.503,3.152,2.377,2.861,2.348,2.636L2.343,2.597L2.251,2.538C2.225,2.521,2.208,2.491,2.208,2.459V2.304
		c0-0.052,0.042-0.094,0.094-0.094h0.038V2.042c0-0.036,0.021-0.068,0.052-0.084c0.129-0.064,0.386-0.173,0.652-0.173
		c0.212,0,0.388,0.071,0.523,0.21C3.736,2.169,3.93,2.257,4.144,2.257c0.121,0,0.246-0.029,0.372-0.085
		c0.029-0.013,0.063-0.011,0.089,0.007c0.013,0.008,0.022,0.019,0.03,0.031h0.051c0.052,0,0.094,0.042,0.094,0.094v0.155
		c0,0.032-0.017,0.062-0.043,0.079l-0.091,0.06L4.642,2.636C4.612,2.861,4.486,3.152,4.304,3.415z"/>
	<path fill="#585858" d="M10.69,10.184c0.036-0.076,0.056-0.161,0.056-0.251V6.057c0-0.285-0.201-0.531-0.481-0.587L9.191,5.255
		C9.137,5.193,9.07,5.144,8.996,5.108C9.08,5.014,9.152,4.919,9.207,4.84c0.131-0.19,0.24-0.396,0.316-0.593
		c0.037-0.083,0.068-0.167,0.094-0.25C9.719,3.912,9.779,3.784,9.779,3.65V3.323c0-0.094-0.029-0.186-0.084-0.263V2.6
		c0-0.809-0.658-1.467-1.467-1.467H7.753c-0.809,0-1.467,0.658-1.467,1.467v0.461C6.231,3.137,6.202,3.229,6.202,3.323V3.65
		c0,0.134,0.06,0.261,0.162,0.347c0.026,0.082,0.058,0.166,0.095,0.25C6.534,4.444,6.643,4.649,6.774,4.84
		c0.055,0.079,0.126,0.174,0.211,0.269c-0.074,0.035-0.14,0.085-0.194,0.147L5.734,5.47C5.455,5.526,5.254,5.771,5.254,6.057v3.876
		c0,0.09,0.02,0.175,0.055,0.251v0.425c0,0.29,0.234,0.524,0.524,0.524c0.105,0,0.204-0.031,0.286-0.086v4.013
		c0,0.52,0.421,0.94,0.94,0.94C7.579,16,8,15.579,8,15.06C8,15.579,8.421,16,8.94,16c0.519,0,0.94-0.421,0.94-0.94v-4.013
		c0.082,0.055,0.18,0.086,0.285,0.086c0.29,0,0.524-0.234,0.524-0.524V10.184L10.69,10.184z M7.709,6.452
		C7.705,6.49,7.678,6.522,7.641,6.533C7.632,6.535,7.624,6.536,7.616,6.536c-0.029,0-0.057-0.013-0.075-0.037L7.276,6.148
		C7.264,6.132,7.257,6.112,7.257,6.092l0-0.562c0-0.033,0.017-0.063,0.045-0.081s0.063-0.018,0.092-0.002
		c0.077,0.041,0.154,0.068,0.229,0.081c0.045,0.008,0.077,0.047,0.077,0.093v0.234C7.715,5.86,7.727,5.869,7.737,5.879
		c0.018,0.02,0.026,0.046,0.024,0.073L7.709,6.452z M8.705,6.148l-0.264,0.35C8.423,6.522,8.395,6.536,8.366,6.536
		c-0.008,0-0.017-0.001-0.025-0.003C8.303,6.522,8.276,6.49,8.272,6.452l-0.051-0.5C8.218,5.926,8.227,5.899,8.244,5.879
		C8.254,5.869,8.266,5.86,8.28,5.855V5.621c0-0.045,0.033-0.084,0.078-0.093c0.074-0.013,0.15-0.041,0.229-0.081
		C8.615,5.432,8.65,5.432,8.678,5.449C8.707,5.466,8.724,5.497,8.724,5.53v0.562C8.724,6.112,8.717,6.132,8.705,6.148z M8.801,4.548
		C8.57,4.881,8.355,5.031,8.243,5.031H7.738c-0.111,0-0.327-0.149-0.557-0.483C7,4.285,6.873,3.993,6.844,3.769L6.838,3.729
		L6.747,3.67C6.721,3.653,6.704,3.624,6.704,3.591V3.437c0-0.052,0.042-0.094,0.094-0.094h0.039V3.175
		c0-0.036,0.02-0.068,0.052-0.084c0.129-0.064,0.387-0.173,0.653-0.173c0.212,0,0.388,0.07,0.523,0.209
		C8.232,3.301,8.426,3.389,8.64,3.389c0.122,0,0.247-0.028,0.372-0.085c0.029-0.013,0.063-0.01,0.09,0.007
		C9.114,3.319,9.124,3.33,9.131,3.343h0.052c0.052,0,0.095,0.042,0.095,0.094v0.154c0,0.032-0.017,0.062-0.043,0.079L9.143,3.729
		L9.138,3.769C9.107,3.993,8.981,4.285,8.801,4.548z"/>
</g>
</svg>
