<?xml version="1.0" encoding="utf-8"?>
<!-- Generator: Adobe Illustrator 16.0.0, SVG Export Plug-In . SVG Version: 6.00 Build 0)  -->
<!DOCTYPE svg PUBLIC "-//W3C//DTD SVG 1.1//EN" "http://www.w3.org/Graphics/SVG/1.1/DTD/svg11.dtd">
<svg version="1.1" id="Capa_1" xmlns="http://www.w3.org/2000/svg" xmlns:xlink="http://www.w3.org/1999/xlink" x="0px" y="0px"
	 width="20px" height="20px" viewBox="0 0 20 20" enable-background="new 0 0 20 20" xml:space="preserve">
<g>
	<g>
		<g>
			<path fill="#0B6CBC" d="M10.824,18.621H2.142V1.415h9.36v2.609c0,0.263,0.213,0.478,0.478,0.478h2.532l0.001,8.547
				c0.444,0.012,0.876,0.094,1.285,0.245V3.791c0-0.102-0.042-0.201-0.116-0.272l-3.274-3.274c-0.071-0.072-0.17-0.113-0.273-0.113
				H2.013c-0.637,0-1.155,0.519-1.155,1.155V18.75c0,0.636,0.519,1.155,1.155,1.155h9.741C11.361,19.547,11.046,19.11,10.824,18.621
				z"/>
			<path fill="#0B6CBC" d="M19.102,14.804c0-0.213-0.083-0.418-0.236-0.57l-0.604-0.604c-0.154-0.154-0.354-0.237-0.572-0.237
				c-0.216,0-0.419,0.083-0.572,0.237l-0.923,0.922c-0.493-0.353-1.097-0.562-1.751-0.562c-1.659,0-3.008,1.347-3.008,3.007
				c0,1.662,1.347,3.009,3.008,3.009c1.662,0,3.01-1.346,3.01-3.009c0-0.067-0.003-0.133-0.008-0.201l1.422-1.42
				C19.017,15.225,19.102,15.02,19.102,14.804z M18.211,14.983l-2.895,2.893c-0.061,0.062-0.144,0.097-0.228,0.097l0,0
				c-0.088,0-0.169-0.035-0.232-0.097l-1.338-1.341c-0.127-0.126-0.127-0.333,0.001-0.459l0.256-0.258
				c0.126-0.126,0.333-0.126,0.459,0l0.854,0.853l2.402-2.405c0.062-0.063,0.144-0.095,0.229-0.095s0.169,0.031,0.229,0.095
				l0.259,0.259C18.336,14.651,18.336,14.856,18.211,14.983z"/>
			<path fill="#0B6CBC" d="M8.899,5.261L6.197,5.879l0.618-2.705C5.868,2.937,4.823,3.189,4.083,3.93
				c-1.123,1.123-1.123,2.942,0,4.063c1.122,1.123,2.938,1.123,4.061,0C8.885,7.252,9.137,6.209,8.899,5.261z"/>
			<path fill="#0B6CBC" d="M8.926,3.149c-0.38-0.381-0.843-0.634-1.331-0.755l-0.62,2.704L9.68,4.479
				C9.558,3.993,9.307,3.531,8.926,3.149z"/>
			<g>
				<path fill="#0B6CBC" d="M4.242,11.898h0.987c0.273,0,0.497-0.221,0.497-0.494c0-0.272-0.224-0.498-0.497-0.498H4.242
					c-0.273,0-0.496,0.223-0.496,0.495C3.746,11.676,3.969,11.898,4.242,11.898z"/>
				<path fill="#0B6CBC" d="M8.052,12.743h-3.81c-0.273,0-0.496,0.222-0.496,0.495s0.223,0.496,0.496,0.496h3.812
					c0.273,0,0.495-0.223,0.495-0.496S8.327,12.743,8.052,12.743z"/>
				<path fill="#0B6CBC" d="M7.488,14.579H4.242c-0.273,0-0.496,0.223-0.496,0.496c0,0.271,0.223,0.493,0.496,0.493h3.246
					c0.273,0,0.496-0.222,0.496-0.493C7.984,14.802,7.762,14.579,7.488,14.579z"/>
			</g>
		</g>
	</g>
</g>
</svg>
