<?xml version="1.0" encoding="utf-8"?>
<!-- Generator: Adobe Illustrator 16.0.0, SVG Export Plug-In . SVG Version: 6.00 Build 0)  -->
<!DOCTYPE svg PUBLIC "-//W3C//DTD SVG 1.1//EN" "http://www.w3.org/Graphics/SVG/1.1/DTD/svg11.dtd">
<svg version="1.1" id="Capa_1" xmlns="http://www.w3.org/2000/svg" xmlns:xlink="http://www.w3.org/1999/xlink" x="0px" y="0px"
	 width="20px" height="20px" viewBox="0 0 20 20" enable-background="new 0 0 20 20" xml:space="preserve">
<g>
	<g>
		<g>
			<path fill="#585858" d="M10.801,18.578H2.139V1.412h9.339v2.603c0,0.263,0.213,0.477,0.476,0.477h2.526l0.002,8.527
				c0.442,0.011,0.873,0.093,1.281,0.245V3.782c0-0.102-0.042-0.2-0.115-0.271l-3.267-3.267c-0.072-0.071-0.17-0.113-0.272-0.113
				H2.01c-0.635,0-1.152,0.518-1.152,1.152v17.423c0,0.635,0.518,1.153,1.152,1.153h9.718
				C11.338,19.501,11.022,19.065,10.801,18.578z"/>
			<path fill="#585858" d="M19.059,14.77c0-0.214-0.083-0.417-0.235-0.569l-0.603-0.603c-0.154-0.154-0.355-0.237-0.571-0.237
				c-0.215,0-0.418,0.083-0.57,0.237l-0.921,0.919c-0.492-0.352-1.095-0.561-1.747-0.561c-1.655,0-3,1.344-3,3.001
				c0,1.656,1.343,3,3,3c1.658,0,3.002-1.342,3.002-3c0-0.067-0.003-0.134-0.008-0.201l1.418-1.417
				C18.974,15.188,19.059,14.984,19.059,14.77z M18.17,14.948l-2.888,2.886c-0.061,0.062-0.144,0.097-0.228,0.097l0,0
				c-0.087,0-0.169-0.035-0.231-0.097l-1.336-1.338c-0.126-0.126-0.126-0.332,0.002-0.458l0.256-0.258
				c0.126-0.127,0.332-0.127,0.458,0l0.852,0.85l2.396-2.398c0.061-0.063,0.143-0.095,0.229-0.095c0.087,0,0.17,0.032,0.229,0.095
				l0.259,0.259C18.295,14.617,18.295,14.822,18.17,14.948z"/>
			<path fill="#585858" d="M8.881,5.249L6.185,5.866l0.617-2.698C5.856,2.931,4.813,3.182,4.076,3.921
				c-1.12,1.12-1.12,2.935,0,4.054c1.119,1.12,2.932,1.12,4.051,0C8.866,7.236,9.118,6.194,8.881,5.249z"/>
			<path fill="#585858" d="M8.907,3.142C8.528,2.762,8.066,2.51,7.58,2.389L6.961,5.086L9.66,4.469
				C9.538,3.984,9.287,3.523,8.907,3.142z"/>
			<g>
				<path fill="#585858" d="M4.234,11.871h0.984c0.273,0,0.496-0.222,0.496-0.494s-0.223-0.496-0.496-0.496H4.234
					c-0.273,0-0.495,0.223-0.495,0.495S3.961,11.871,4.234,11.871z"/>
				<path fill="#585858" d="M8.035,12.713H4.234c-0.273,0-0.495,0.222-0.495,0.495c0,0.272,0.222,0.494,0.495,0.494h3.803
					c0.272,0,0.494-0.222,0.494-0.494C8.531,12.935,8.309,12.713,8.035,12.713z"/>
				<path fill="#585858" d="M7.472,14.545H4.234c-0.273,0-0.495,0.223-0.495,0.495s0.222,0.493,0.495,0.493h3.238
					c0.273,0,0.495-0.221,0.495-0.493S7.746,14.545,7.472,14.545z"/>
			</g>
		</g>
	</g>
</g>
</svg>
