<?xml version="1.0" encoding="utf-8"?>
<!-- Generator: Adobe Illustrator 16.0.0, SVG Export Plug-In . SVG Version: 6.00 Build 0)  -->
<!DOCTYPE svg PUBLIC "-//W3C//DTD SVG 1.1//EN" "http://www.w3.org/Graphics/SVG/1.1/DTD/svg11.dtd">
<svg version="1.1" id="Capa_1" xmlns="http://www.w3.org/2000/svg" xmlns:xlink="http://www.w3.org/1999/xlink" x="0px" y="0px"
	 width="20px" height="20px" viewBox="0 0 20 20" enable-background="new 0 0 20 20" xml:space="preserve">
<g>
	<g>
		<path fill="#0B6CBC" d="M13.145,10.423c0-0.468-0.357-0.688-1.032-0.688h-0.675v1.444h0.675
			C12.773,11.18,13.145,10.932,13.145,10.423z"/>
		<path fill="#0B6CBC" d="M7.751,11.188c0.709,0,1.162-0.647,1.162-1.659c0-1.003-0.453-1.617-1.162-1.617S6.588,8.525,6.588,9.528
			C6.588,10.54,7.042,11.188,7.751,11.188z"/>
		<path fill="#0B6CBC" d="M12.903,8.504c0-0.413-0.295-0.585-0.88-0.585h-0.586v1.246h0.571C12.635,9.165,12.903,8.924,12.903,8.504
			z"/>
		<g>
			<path fill="#0B6CBC" d="M0.882,3.94v14.677c0,0.666,0.539,1.205,1.205,1.205h10.749l0,0v-4.852c0-0.789,0.642-1.43,1.431-1.43
				h4.852V3.94c0-0.665-0.54-1.205-1.205-1.205h-2.616c-0.364,0.547-0.986,0.91-1.692,0.91c-0.339,0-0.657-0.084-0.939-0.23
				l-1.961,1.302c-0.135,0.091-0.298-0.071-0.206-0.208l1.177-1.773H2.087C1.421,2.735,0.882,3.276,0.882,3.94z M16.055,9.948
				l-0.619-0.268c-0.441-0.186-0.908-0.537-0.908-1.198c0-0.715,0.633-1.266,1.513-1.266c0.523,0,1.033,0.22,1.383,0.571
				l-0.405,0.509c-0.289-0.241-0.591-0.386-0.978-0.386c-0.426,0-0.708,0.2-0.708,0.53c0,0.35,0.345,0.482,0.715,0.633L16.66,9.33
				c0.529,0.227,0.907,0.564,0.907,1.217c0,0.73-0.604,1.334-1.615,1.334c-0.606,0-1.198-0.24-1.624-0.658l0.468-0.545
				c0.323,0.303,0.757,0.51,1.169,0.51c0.509,0,0.783-0.227,0.783-0.578C16.748,10.236,16.46,10.12,16.055,9.948z M10.641,7.3h1.437
				c0.93,0,1.61,0.283,1.61,1.107c0,0.427-0.246,0.84-0.771,0.977v0.028c0.647,0.11,1.006,0.46,1.006,1.065
				c0,0.904-0.736,1.322-1.728,1.322h-1.555V7.3L10.641,7.3z M7.751,7.217c1.176,0,1.988,0.859,1.988,2.311
				c0,1.46-0.813,2.353-1.988,2.353c-1.17,0-1.981-0.893-1.981-2.353C5.77,8.077,6.581,7.217,7.751,7.217z M2.749,10.713
				c0.179,0.33,0.427,0.475,0.702,0.475c0.42,0,0.633-0.227,0.633-0.867V7.3h0.798v3.089c0,0.818-0.398,1.492-1.341,1.492
				c-0.627,0-1.06-0.26-1.343-0.762L2.749,10.713z"/>
			<path fill="#0B6CBC" d="M14.267,14.369c-0.333,0-0.602,0.268-0.602,0.602v4.463v0.389l5.453-5.453h-0.308H14.267L14.267,14.369z"
				/>
			<path fill="#0B6CBC" d="M12.72,2.735c0.163,0.129,0.354,0.223,0.562,0.271c0.104,0.023,0.213,0.036,0.323,0.036
				c0.333,0,0.64-0.115,0.884-0.307c0.334-0.262,0.548-0.667,0.548-1.125c0-0.791-0.642-1.432-1.432-1.432
				c-0.792,0-1.433,0.641-1.433,1.432c0,0.11,0.014,0.218,0.037,0.322C12.283,2.255,12.467,2.538,12.72,2.735z"/>
		</g>
	</g>
</g>
</svg>
