<?xml version="1.0" encoding="utf-8"?>
<!-- Generator: Adobe Illustrator 16.0.0, SVG Export Plug-In . SVG Version: 6.00 Build 0)  -->
<!DOCTYPE svg PUBLIC "-//W3C//DTD SVG 1.1//EN" "http://www.w3.org/Graphics/SVG/1.1/DTD/svg11.dtd">
<svg version="1.1" id="Capa_1" xmlns="http://www.w3.org/2000/svg" xmlns:xlink="http://www.w3.org/1999/xlink" x="0px" y="0px"
	 width="20px" height="20px" viewBox="0 0 20 20" enable-background="new 0 0 20 20" xml:space="preserve">
<g>
	<path fill="#585858" d="M19.581,14.312h-0.615v-3.437c0-0.402-0.121-0.797-0.347-1.131l-1.54-2.28
		c-0.376-0.557-1.003-0.89-1.676-0.89h-2.388c-0.279,0-0.505,0.228-0.505,0.505v7.232H8.602c0.372,0.321,0.627,0.769,0.7,1.275
		h4.122c0.146-1.004,1.011-1.78,2.055-1.78c1.045,0,1.907,0.776,2.054,1.78h2.049c0.138,0,0.252-0.115,0.252-0.254v-0.769
		C19.833,14.426,19.719,14.312,19.581,14.312z M17.063,10.199h-3.15c-0.14,0-0.254-0.111-0.254-0.253V8.199
		c0-0.139,0.114-0.253,0.254-0.253h1.919c0.083,0,0.158,0.041,0.207,0.106l1.231,1.75C17.386,9.969,17.267,10.199,17.063,10.199z
		 M15.479,14.312c-0.869,0-1.572,0.705-1.572,1.574c0,0.868,0.703,1.574,1.572,1.574c0.868,0,1.573-0.706,1.573-1.574
		S16.347,14.312,15.479,14.312z M15.479,16.674c-0.435,0-0.786-0.355-0.786-0.787c0-0.435,0.352-0.786,0.786-0.786
		c0.436,0,0.787,0.352,0.787,0.786C16.266,16.318,15.914,16.674,15.479,16.674z M2.366,14.312c-0.139,0-0.253,0.114-0.253,0.253
		v0.769c0,0.139,0.114,0.254,0.253,0.254h2.827c0.073-0.507,0.328-0.954,0.697-1.275H2.366L2.366,14.312z M7.246,14.312
		c-0.867,0-1.573,0.705-1.573,1.574c0,0.868,0.706,1.574,1.573,1.574c0.869,0,1.573-0.706,1.573-1.574S8.116,14.312,7.246,14.312z
		 M7.246,16.674c-0.435,0-0.786-0.355-0.786-0.787c0-0.435,0.352-0.786,0.786-0.786s0.786,0.352,0.786,0.786
		C8.032,16.318,7.681,16.674,7.246,16.674z M11.029,5.006H8.099c0.144,0.427,0.22,0.885,0.22,1.358c0,2.387-1.942,4.329-4.329,4.329
		c-0.435,0-0.857-0.065-1.254-0.185v2.795c0,0.14,0.113,0.253,0.253,0.253h8.547c0.139,0,0.253-0.113,0.253-0.253V5.764
		C11.788,5.345,11.449,5.006,11.029,5.006z M3.99,2.54c-2.111,0-3.823,1.711-3.823,3.823s1.712,3.823,3.823,3.823
		s3.823-1.711,3.823-3.823S6.102,2.54,3.99,2.54z M3.99,9.316c-1.631,0-2.953-1.322-2.953-2.953S2.359,3.41,3.99,3.41
		s2.953,1.322,2.953,2.953S5.621,9.316,3.99,9.316z M5.118,6.986c-0.033,0-0.065-0.004-0.1-0.013L3.787,6.641
		c-0.166-0.044-0.28-0.195-0.28-0.366V4.378C3.507,4.169,3.677,4,3.886,4s0.379,0.17,0.379,0.379v1.606l0.952,0.256
		c0.202,0.055,0.321,0.263,0.267,0.465C5.438,6.875,5.285,6.986,5.118,6.986z"/>
</g>
</svg>
