<?xml version="1.0" encoding="utf-8"?>
<!-- Generator: Adobe Illustrator 16.0.0, SVG Export Plug-In . SVG Version: 6.00 Build 0)  -->
<!DOCTYPE svg PUBLIC "-//W3C//DTD SVG 1.1//EN" "http://www.w3.org/Graphics/SVG/1.1/DTD/svg11.dtd">
<svg version="1.1" id="Capa_1" xmlns="http://www.w3.org/2000/svg" xmlns:xlink="http://www.w3.org/1999/xlink" x="0px" y="0px"
	 width="20px" height="20px" viewBox="0 0 20 20" enable-background="new 0 0 20 20" xml:space="preserve">
<g>
	<g>
		<path fill="#585858" d="M7.002,12.477c-0.083,0-0.168,0.002-0.254,0.002c-1.766,0-3.434-0.207-4.696-0.582
			c-0.65-0.191-1.171-0.423-1.548-0.688C0.45,11.17,0.398,11.131,0.35,11.093v2.926c0,1.048,2.865,1.896,6.397,1.896
			c0.181,0,0.359-0.002,0.535-0.006c-0.257-0.717-0.387-1.472-0.387-2.243C6.896,13.263,6.93,12.866,7.002,12.477z"/>
		<path fill="#585858" d="M8.849,8.95C9.111,8.688,9.39,8.451,9.686,8.24C8.782,8.374,7.782,8.445,6.748,8.445
			c-1.766,0-3.434-0.207-4.696-0.582C1.402,7.671,0.881,7.44,0.504,7.175C0.45,7.136,0.398,7.098,0.35,7.059v2.913
			c0,0.086,0.02,0.169,0.057,0.252c0.415,0.93,3.095,1.645,6.341,1.645c0.132,0,0.264-0.002,0.393-0.004
			c0.075-0.271,0.169-0.537,0.28-0.797c0.124-0.293,0.268-0.575,0.431-0.844C8.128,9.764,8.461,9.336,8.849,8.95z"/>
		<path fill="#585858" d="M6.748,4.65c-1.766,0-3.434-0.207-4.696-0.582C1.402,3.876,0.881,3.646,0.504,3.38
			C0.45,3.342,0.398,3.303,0.35,3.265v2.308v0.304v0.064c0,0.081,0.018,0.162,0.051,0.239c0.396,0.934,3.087,1.657,6.347,1.657
			c3.26,0,5.952-0.724,6.348-1.657c0.033-0.079,0.051-0.158,0.051-0.239V5.876V5.572V3.265c-0.049,0.041-0.1,0.08-0.154,0.116
			c-0.377,0.263-0.898,0.494-1.547,0.688C10.182,4.444,8.515,4.65,6.748,4.65z"/>
		<path fill="#585858" d="M13.146,2.146c0-0.103-0.029-0.204-0.084-0.304c-0.057-0.105-0.141-0.207-0.252-0.304
			C11.955,0.789,9.564,0.25,6.748,0.25c-2.816,0-5.208,0.539-6.061,1.289C0.575,1.636,0.49,1.737,0.433,1.842
			C0.378,1.942,0.35,2.043,0.35,2.146l0,0c0,1.047,2.865,1.896,6.397,1.896C10.281,4.042,13.146,3.193,13.146,2.146L13.146,2.146z"
			/>
		<path fill="#585858" d="M13.754,7.582c-0.063-0.002-0.125-0.004-0.189-0.004c-0.039,0-0.078,0-0.115,0.002
			c-0.1,0.002-0.201,0.006-0.303,0.012c-1.912,0.13-3.581,1.141-4.603,2.632c-0.339,0.492-0.608,1.04-0.791,1.624
			c-0.032,0.101-0.061,0.203-0.087,0.307c-0.026,0.102-0.049,0.205-0.069,0.306c-0.079,0.389-0.119,0.793-0.119,1.204
			c0,0.783,0.147,1.532,0.417,2.219c0.887,2.263,3.091,3.867,5.669,3.867c3.361,0,6.086-2.725,6.086-6.086
			C19.65,10.368,17.027,7.684,13.754,7.582z M15.346,16.596c-0.307,0.322-0.723,0.535-1.201,0.62v0.243
			c0,0.223-0.18,0.403-0.402,0.403h-0.219c-0.223,0-0.402-0.181-0.402-0.403v-0.253c-0.264-0.052-0.518-0.137-0.744-0.252
			c-0.268-0.138-0.502-0.362-0.695-0.667c-0.129-0.202-0.223-0.438-0.279-0.701c-0.023-0.099-0.004-0.197,0.043-0.278
			c0.055-0.103,0.158-0.178,0.281-0.199l0.217-0.038c0.043-0.008,0.088-0.008,0.129,0c0.156,0.023,0.287,0.138,0.328,0.298
			c0.061,0.241,0.145,0.427,0.248,0.559c0.23,0.297,0.611,0.473,1.018,0.473l0,0c0.07,0,0.139-0.007,0.207-0.017
			c0.293-0.044,0.553-0.183,0.734-0.389c0.191-0.219,0.289-0.494,0.289-0.819c0-0.273-0.066-0.496-0.201-0.66
			c-0.244-0.3-0.664-0.429-1.043-0.515c-0.176-0.04-0.344-0.079-0.51-0.125c-0.275-0.079-0.541-0.177-0.807-0.324
			c-0.273-0.152-0.486-0.367-0.635-0.637c-0.145-0.267-0.221-0.574-0.221-0.915c0-0.04,0.002-0.079,0.002-0.117
			c0.008-0.116,0.021-0.226,0.041-0.331c0.025-0.125,0.063-0.244,0.111-0.358c0.107-0.252,0.271-0.475,0.488-0.665
			c0.143-0.123,0.313-0.227,0.504-0.306c0.15-0.063,0.314-0.109,0.486-0.142V9.751c0-0.048,0.012-0.097,0.027-0.14
			c0.049-0.131,0.164-0.229,0.303-0.255c0.025-0.004,0.049-0.006,0.072-0.006h0.221c0.004,0,0.008,0,0.012,0
			c0.217,0.006,0.391,0.184,0.391,0.4v0.334c0.363,0.071,0.686,0.212,0.928,0.414c0.258,0.213,0.443,0.481,0.559,0.807
			c0.086,0.236-0.07,0.493-0.32,0.53l-0.211,0.032c-0.193,0.027-0.379-0.085-0.441-0.268c-0.049-0.149-0.117-0.273-0.203-0.369
			c-0.193-0.215-0.494-0.338-0.828-0.338c-0.102,0-0.201,0.012-0.297,0.032c-0.063,0.014-0.123,0.033-0.182,0.055
			c-0.166,0.065-0.313,0.16-0.424,0.284c-0.053,0.059-0.096,0.119-0.131,0.184c-0.082,0.146-0.123,0.309-0.123,0.488
			c0,0.255,0.072,0.473,0.213,0.645c0.125,0.15,0.285,0.256,0.463,0.332c0.242,0.106,0.518,0.162,0.789,0.218
			c0.273,0.054,0.559,0.111,0.805,0.221c0.262,0.115,0.48,0.259,0.646,0.426c0.168,0.167,0.299,0.368,0.389,0.599
			c0.09,0.229,0.137,0.479,0.137,0.746C15.908,15.708,15.719,16.202,15.346,16.596z"/>
	</g>
</g>
</svg>
