<?xml version="1.0" encoding="utf-8"?>
<!-- Generator: Adobe Illustrator 16.0.0, SVG Export Plug-In . SVG Version: 6.00 Build 0)  -->
<!DOCTYPE svg PUBLIC "-//W3C//DTD SVG 1.1//EN" "http://www.w3.org/Graphics/SVG/1.1/DTD/svg11.dtd">
<svg version="1.1" id="Capa_1" xmlns="http://www.w3.org/2000/svg" xmlns:xlink="http://www.w3.org/1999/xlink" x="0px" y="0px"
	 width="20px" height="20px" viewBox="0 0 20 20" enable-background="new 0 0 20 20" xml:space="preserve">
<g>
	<g>
		<path fill="#0B6CBC" d="M11.461,7.503c-0.116,0-0.222,0.062-0.276,0.163l-2.919,5.301c-0.053,0.096-0.051,0.213,0.004,0.306
			c0.057,0.097,0.158,0.155,0.268,0.155c0.113,0,0.217-0.063,0.273-0.164l2.923-5.297c0.052-0.096,0.052-0.215-0.007-0.311
			C11.673,7.563,11.568,7.503,11.461,7.503z"/>
		<path fill="#0B6CBC" d="M9.515,9.154c0-0.972-0.55-1.687-1.53-1.687c-0.972,0-1.592,0.769-1.592,1.782
			c0,1.067,0.684,1.715,1.548,1.715C8.763,10.963,9.515,10.342,9.515,9.154z M7.968,10.237c-0.386,0-0.585-0.428-0.585-1.021
			c0-0.569,0.183-1.023,0.577-1.023c0.412,0,0.568,0.446,0.568,1.023C8.527,9.854,8.344,10.237,7.968,10.237z"/>
		<path fill="#0B6CBC" d="M12.076,9.827c-0.969,0-1.59,0.77-1.59,1.783c0.008,1.066,0.691,1.715,1.547,1.715
			c0.823,0,1.574-0.623,1.574-1.813C13.607,10.542,13.058,9.827,12.076,9.827z M12.059,12.598c-0.384,0-0.582-0.428-0.576-1.021
			c0-0.569,0.175-1.023,0.576-1.023c0.411,0,0.561,0.445,0.561,1.023C12.619,12.215,12.435,12.598,12.059,12.598z"/>
		<path fill="#0B6CBC" d="M18.52,7.697c-0.309-0.955,0.113-2.289-0.465-3.083c-0.585-0.8-1.989-0.811-2.79-1.393
			c-0.795-0.578-1.233-1.914-2.188-2.223C12.156,0.698,11.021,1.511,10,1.511c-1.02,0-2.156-0.813-3.076-0.514
			C5.97,1.306,5.531,2.642,4.738,3.22c-0.803,0.583-2.207,0.593-2.79,1.394C1.37,5.408,1.792,6.742,1.482,7.697
			c-0.301,0.919-1.436,1.748-1.436,2.768c0,1.02,1.135,1.848,1.436,2.767c0.31,0.953-0.114,2.29,0.464,3.083
			c0.583,0.803,1.988,0.811,2.79,1.393c0.794,0.58,1.233,1.915,2.187,2.226c0.92,0.299,2.058-0.515,3.077-0.515
			c1.021,0,2.156,0.813,3.077,0.517c0.954-0.31,1.393-1.646,2.188-2.226c0.803-0.582,2.203-0.59,2.791-1.394
			c0.579-0.794,0.156-2.128,0.465-3.081c0.298-0.922,1.435-1.749,1.435-2.769C19.954,9.445,18.816,8.617,18.52,7.697z M10,17.479
			c-3.873,0-7.013-3.14-7.013-7.014c0-3.872,3.14-7.013,7.013-7.013c3.875,0,7.014,3.14,7.014,7.013
			C17.015,14.337,13.875,17.479,10,17.479z"/>
		<path fill="#0B6CBC" d="M10,4.346c-3.374,0-6.119,2.745-6.119,6.119c0,3.375,2.745,6.119,6.118,6.119
			c3.375,0,6.12-2.744,6.12-6.119C16.119,7.091,13.375,4.346,10,4.346z M10,15.586c-2.824,0-5.12-2.298-5.12-5.121
			S7.177,5.347,10,5.347c2.825,0,5.12,2.296,5.12,5.119S12.824,15.586,10,15.586z"/>
	</g>
</g>
</svg>
