<?xml version="1.0" encoding="utf-8"?>
<!-- Generator: Adobe Illustrator 16.0.0, SVG Export Plug-In . SVG Version: 6.00 Build 0)  -->
<!DOCTYPE svg PUBLIC "-//W3C//DTD SVG 1.1//EN" "http://www.w3.org/Graphics/SVG/1.1/DTD/svg11.dtd">
<svg version="1.1" id="Capa_1" xmlns="http://www.w3.org/2000/svg" xmlns:xlink="http://www.w3.org/1999/xlink" x="0px" y="0px"
	 width="20px" height="20px" viewBox="0 0 20 20" enable-background="new 0 0 20 20" xml:space="preserve">
<g>
	<g>
		<path fill="#585858" d="M11.443,7.523c-0.116,0-0.222,0.062-0.275,0.163l-2.916,5.293c-0.053,0.095-0.05,0.212,0.004,0.306
			c0.057,0.095,0.158,0.153,0.268,0.153c0.113,0,0.216-0.063,0.272-0.162l2.918-5.29c0.053-0.096,0.053-0.215-0.006-0.311
			C11.654,7.582,11.55,7.523,11.443,7.523z"/>
		<path fill="#585858" d="M9.5,9.171c0-0.97-0.549-1.685-1.527-1.685c-0.97,0-1.59,0.768-1.59,1.779
			c0,1.066,0.682,1.712,1.545,1.712C8.75,10.977,9.5,10.357,9.5,9.171z M7.956,10.253c-0.385,0-0.585-0.427-0.585-1.021
			c0-0.568,0.183-1.021,0.576-1.021c0.411,0,0.567,0.445,0.567,1.021C8.514,9.87,8.331,10.253,7.956,10.253z"/>
		<path fill="#585858" d="M12.059,9.843c-0.968,0-1.589,0.769-1.589,1.781c0.009,1.065,0.691,1.713,1.545,1.713
			c0.821,0,1.572-0.623,1.572-1.811C13.587,10.557,13.038,9.843,12.059,9.843z M12.041,12.61c-0.385,0-0.583-0.428-0.577-1.021
			c0-0.569,0.175-1.022,0.577-1.022c0.409,0,0.56,0.444,0.56,1.022C12.601,12.229,12.416,12.61,12.041,12.61z"/>
		<path fill="#585858" d="M18.49,7.716c-0.308-0.954,0.112-2.285-0.464-3.078c-0.584-0.799-1.986-0.81-2.786-1.391
			c-0.793-0.577-1.231-1.911-2.184-2.22C12.139,0.729,11.004,1.54,9.985,1.54S7.833,0.729,6.914,1.026
			C5.961,1.334,5.522,2.669,4.73,3.246C3.929,3.829,2.527,3.838,1.945,4.638C1.368,5.431,1.789,6.763,1.48,7.716
			c-0.3,0.918-1.433,1.745-1.433,2.763c0,1.019,1.133,1.847,1.433,2.764c0.309,0.951-0.114,2.286,0.464,3.077
			c0.582,0.801,1.984,0.81,2.785,1.392c0.793,0.578,1.231,1.911,2.183,2.222c0.92,0.298,2.055-0.515,3.073-0.515
			s2.153,0.813,3.071,0.517c0.952-0.311,1.391-1.644,2.184-2.222c0.801-0.582,2.2-0.591,2.787-1.393
			c0.577-0.792,0.156-2.124,0.465-3.076c0.297-0.919,1.433-1.745,1.433-2.765C19.924,9.461,18.787,8.635,18.49,7.716z M9.985,17.483
			c-3.868,0-7.002-3.135-7.002-7.004c0-3.866,3.135-7.002,7.002-7.002c3.868,0,7.002,3.135,7.002,7.002
			C16.987,14.346,13.854,17.483,9.985,17.483z"/>
		<path fill="#585858" d="M9.985,4.371c-3.369,0-6.11,2.74-6.11,6.109c0,3.371,2.741,6.109,6.109,6.109
			c3.37,0,6.108-2.74,6.108-6.109C16.093,7.111,13.354,4.371,9.985,4.371z M9.985,15.593c-2.82,0-5.112-2.294-5.112-5.112
			c0-2.819,2.292-5.111,5.112-5.111c2.819,0,5.112,2.292,5.112,5.111C15.098,13.299,12.804,15.593,9.985,15.593z"/>
	</g>
</g>
</svg>
