<?xml version="1.0" encoding="utf-8"?>
<!-- Generator: Adobe Illustrator 16.0.0, SVG Export Plug-In . SVG Version: 6.00 Build 0)  -->
<!DOCTYPE svg PUBLIC "-//W3C//DTD SVG 1.1//EN" "http://www.w3.org/Graphics/SVG/1.1/DTD/svg11.dtd">
<svg version="1.1" id="Capa_1" xmlns="http://www.w3.org/2000/svg" xmlns:xlink="http://www.w3.org/1999/xlink" x="0px" y="0px"
	 width="18px" height="18px" viewBox="0 0 18 18" enable-background="new 0 0 18 18" xml:space="preserve">
<g>
	<g>
		<path fill="#0B6CBC" d="M12.622,9.709l-1.476-0.37c0.609-0.543,1.104-1.291,1.435-2.114c0.489-0.089,0.948-0.478,1.022-1.371
			c0.07-0.863-0.213-1.219-0.58-1.361c-0.008-0.276-0.043-0.532-0.059-0.774C12.8,0.993,11.43-0.207,9.214,0.031
			c-0.288,0.029-0.572,0.047-0.862,0C7.196-0.159,5.988,0.73,5.4,1.656C4.638,2.855,4.93,4.467,4.927,4.519
			C4.593,4.677,4.345,5.04,4.412,5.854c0.071,0.865,0.503,1.257,0.975,1.361c0.336,0.828,0.84,1.582,1.458,2.13L5.379,9.71
			c-2,0.501-3.403,2.29-3.403,4.353v2.467c0,0.701,0.58,1.283,1.28,1.283h11.493c0.7,0,1.274-0.582,1.274-1.283v-2.467
			C16.023,11.998,14.624,10.21,12.622,9.709z M4.407,17.032H3.256c-0.271,0-0.5-0.233-0.5-0.503v-2.469
			c0-1.266,0.647-2.403,1.651-3.078V17.032z M5.7,4.938c0-0.115,0.018-0.227,0.05-0.337c0.091-0.294,0.207-0.544,0.323-0.748
			C6.272,3.5,6.596,3.234,6.979,3.106c0.012-0.003,0.023-0.008,0.034-0.013C7.149,3.048,7.297,3.1,7.375,3.22
			C7.453,3.339,7.44,3.496,7.342,3.6C7.324,3.619,7.305,3.639,7.286,3.658C7.229,3.718,7.215,3.81,7.254,3.884
			C7.293,3.958,7.375,4,7.459,3.987c0.811-0.134,2.229-0.489,3.294-1.41c0.284-0.244,0.708-0.219,0.961,0.055
			c0.24,0.261,0.396,0.584,0.447,0.935c0.062,0.392,0.092,0.846,0.092,1.372c0,2.043-1.461,4.511-3.277,4.511
			C7.161,9.449,5.7,6.981,5.7,4.938z M9.29,17.032H8.724l-2.686-6.677l1.678-0.424c0.396,0.19,0.818,0.297,1.26,0.297
			c0.459,0,0.895-0.108,1.297-0.303l1.707,0.434L9.29,17.032z M15.244,16.529c0,0.27-0.227,0.503-0.495,0.503h-1.127V11
			c0.989,0.674,1.62,1.807,1.62,3.063L15.244,16.529L15.244,16.529z"/>
		<circle fill="#0B6CBC" cx="8.994" cy="13.307" r="0.446"/>
		<circle fill="#0B6CBC" cx="8.994" cy="14.898" r="0.445"/>
		<path fill="#0B6CBC" d="M10.32,10.598L9.518,10.83c-0.013,0.003-0.024,0.005-0.037,0.007c-0.13-0.112-0.299-0.188-0.484-0.188
			s-0.354,0.076-0.484,0.188C8.5,10.835,8.487,10.833,8.475,10.83l-0.8-0.232c-0.239-0.068-0.466,0.111-0.466,0.36v0.91
			c0,0.251,0.228,0.43,0.468,0.36l0.835-0.244c0.13,0.115,0.298,0.188,0.484,0.193c0.187-0.007,0.356-0.078,0.488-0.193l0.836,0.244
			c0.24,0.068,0.472-0.11,0.472-0.36v-0.91C10.791,10.709,10.561,10.527,10.32,10.598z"/>
	</g>
</g>
</svg>
