<?xml version="1.0" encoding="utf-8"?>
<!-- Generator: Adobe Illustrator 16.0.0, SVG Export Plug-In . SVG Version: 6.00 Build 0)  -->
<!DOCTYPE svg PUBLIC "-//W3C//DTD SVG 1.1//EN" "http://www.w3.org/Graphics/SVG/1.1/DTD/svg11.dtd">
<svg version="1.1" id="Capa_1" xmlns="http://www.w3.org/2000/svg" xmlns:xlink="http://www.w3.org/1999/xlink" x="0px" y="0px"
	 width="18px" height="18px" viewBox="0 0 18 18" enable-background="new 0 0 18 18" xml:space="preserve">
<g>
	<g>
		<path fill="#585858" d="M12.641,9.757l-1.484-0.371c0.615-0.546,1.111-1.297,1.443-2.125c0.49-0.09,0.953-0.48,1.027-1.378
			c0.07-0.867-0.215-1.225-0.582-1.368c-0.01-0.278-0.043-0.535-0.059-0.778c-0.166-2.74-1.543-3.946-3.771-3.707
			c-0.29,0.03-0.575,0.047-0.866,0C7.187-0.16,5.973,0.734,5.382,1.665C4.616,2.87,4.91,4.489,4.907,4.541
			C4.571,4.7,4.322,5.064,4.389,5.882c0.072,0.87,0.506,1.264,0.98,1.369c0.338,0.831,0.844,1.589,1.465,2.14L5.361,9.758
			c-2.01,0.504-3.42,2.302-3.42,4.373v2.48c0,0.704,0.583,1.289,1.287,1.289h11.55c0.703,0,1.281-0.585,1.281-1.289v-2.48
			C16.059,12.058,14.652,10.26,12.641,9.757z M4.384,17.116H3.228c-0.271,0-0.502-0.233-0.502-0.505v-2.48
			c0-1.271,0.65-2.416,1.659-3.094V17.116z M5.684,4.963c0-0.115,0.018-0.229,0.05-0.339c0.092-0.295,0.208-0.547,0.324-0.751
			c0.201-0.354,0.526-0.623,0.911-0.75c0.012-0.003,0.024-0.008,0.035-0.013C7.14,3.063,7.289,3.115,7.367,3.235
			c0.078,0.12,0.065,0.278-0.033,0.383C7.316,3.637,7.297,3.657,7.278,3.676C7.22,3.736,7.206,3.828,7.246,3.904
			C7.285,3.979,7.367,4.02,7.451,4.006c0.814-0.134,2.238-0.491,3.311-1.417c0.285-0.245,0.713-0.22,0.965,0.055
			c0.242,0.262,0.398,0.587,0.451,0.939c0.061,0.394,0.092,0.85,0.092,1.378c0,2.053-1.469,4.533-3.293,4.533
			S5.684,7.016,5.684,4.963z M9.292,17.116H8.723l-2.7-6.71L7.71,9.981c0.397,0.191,0.822,0.299,1.266,0.299
			c0.461,0,0.9-0.109,1.305-0.304l1.715,0.435L9.292,17.116z M15.275,16.611c0,0.271-0.227,0.505-0.498,0.505h-1.133v-6.062
			c0.996,0.678,1.629,1.815,1.629,3.076L15.275,16.611L15.275,16.611z"/>
		<circle fill="#585858" cx="8.994" cy="13.373" r="0.448"/>
		<circle fill="#585858" cx="8.994" cy="14.972" r="0.447"/>
		<path fill="#585858" d="M10.328,10.65l-0.808,0.233c-0.013,0.003-0.025,0.005-0.038,0.007c-0.131-0.113-0.301-0.19-0.487-0.19
			c-0.186,0-0.355,0.077-0.487,0.19c-0.012-0.002-0.024-0.004-0.037-0.007L7.668,10.65C7.428,10.58,7.2,10.762,7.2,11.012v0.915
			c0,0.252,0.229,0.433,0.471,0.362l0.839-0.245c0.131,0.116,0.3,0.188,0.487,0.195c0.188-0.007,0.358-0.079,0.49-0.195l0.84,0.245
			c0.242,0.07,0.475-0.111,0.475-0.362v-0.915C10.799,10.762,10.568,10.58,10.328,10.65z"/>
	</g>
</g>
</svg>
