<?xml version="1.0" encoding="utf-8"?>
<!-- Generator: Adobe Illustrator 16.0.0, SVG Export Plug-In . SVG Version: 6.00 Build 0)  -->
<!DOCTYPE svg PUBLIC "-//W3C//DTD SVG 1.1//EN" "http://www.w3.org/Graphics/SVG/1.1/DTD/svg11.dtd">
<svg version="1.1" id="Capa_1" xmlns="http://www.w3.org/2000/svg" xmlns:xlink="http://www.w3.org/1999/xlink" x="0px" y="0px"
	 width="16px" height="16px" viewBox="0 0 16 16" enable-background="new 0 0 16 16" xml:space="preserve">
<g>
	<path fill="#585858" d="M15.881,5.106l-3.295-4.858C12.48,0.093,12.305,0,12.117,0H3.882C3.695,0,3.52,0.093,3.414,0.248
		L0.12,5.106C0.056,5.2,0.022,5.311,0.022,5.424c0,0.727,0.312,1.382,0.809,1.839v7.982C0.831,15.662,1.168,16,1.585,16h12.829
		c0.418,0,0.755-0.338,0.755-0.755V7.263c0.497-0.458,0.81-1.113,0.81-1.839C15.979,5.311,15.944,5.2,15.881,5.106z M13.66,12.773
		H2.34V7.917C2.4,7.921,2.461,7.924,2.522,7.924c0.707,0,1.363-0.298,1.826-0.794c0.463,0.496,1.12,0.794,1.826,0.794
		S7.537,7.625,8,7.13c0.463,0.496,1.119,0.794,1.826,0.794c0.706,0,1.362-0.298,1.826-0.794c0.463,0.496,1.119,0.794,1.826,0.794
		c0.061,0,0.121-0.003,0.182-0.007V12.773L13.66,12.773z"/>
	<g>
		<path fill="#585858" d="M3.34,10.064C3.271,9.995,3.179,9.957,3.082,9.957c-0.098,0-0.189,0.038-0.259,0.107
			c-0.069,0.068-0.107,0.16-0.107,0.258s0.038,0.189,0.107,0.26l1.731,1.73c0.069,0.068,0.161,0.106,0.258,0.106
			s0.189-0.038,0.259-0.106c0.069-0.069,0.107-0.161,0.107-0.259S5.14,11.864,5.07,11.795L3.34,10.064z"/>
		<path fill="#585858" d="M5.6,10.816l-1.24-1.24C4.291,9.508,4.199,9.469,4.101,9.469S3.912,9.508,3.843,9.576
			C3.773,9.646,3.735,9.737,3.735,9.835s0.038,0.189,0.107,0.259l1.24,1.239c0.069,0.069,0.161,0.106,0.258,0.106
			S5.53,11.402,5.6,11.333c0.069-0.069,0.107-0.161,0.107-0.259S5.668,10.885,5.6,10.816z"/>
	</g>
</g>
</svg>
