<?xml version="1.0" encoding="utf-8"?>
<!-- Generator: Adobe Illustrator 16.0.0, SVG Export Plug-In . SVG Version: 6.00 Build 0)  -->
<!DOCTYPE svg PUBLIC "-//W3C//DTD SVG 1.1//EN" "http://www.w3.org/Graphics/SVG/1.1/DTD/svg11.dtd">
<svg version="1.1" id="Capa_1" xmlns="http://www.w3.org/2000/svg" xmlns:xlink="http://www.w3.org/1999/xlink" x="0px" y="0px"
	 width="20px" height="20px" viewBox="0 0 20 20" enable-background="new 0 0 20 20" xml:space="preserve">
<g>
	<path fill="#585858" d="M11.518,13.342h0.594c-0.055,0.563-0.23,1.033-0.527,1.414c-0.357,0.459-0.838,0.689-1.442,0.689
		c-0.521,0-0.959-0.188-1.313-0.564c-0.335-0.354-0.551-0.85-0.644-1.482H7.267l0.153-0.516h0.712
		c-0.004-0.1-0.007-0.201-0.007-0.307c0-0.09,0.002-0.178,0.007-0.268H7.267l0.153-0.518h0.771c0.083-0.445,0.237-0.83,0.462-1.154
		c0.379-0.546,0.901-0.821,1.569-0.821c0.569,0,1.008,0.178,1.325,0.535c0.314,0.357,0.488,0.761,0.523,1.214h-0.594
		c-0.066-0.344-0.199-0.617-0.4-0.818c-0.203-0.201-0.482-0.302-0.845-0.302c-0.444,0-0.801,0.185-1.074,0.556
		c-0.15,0.205-0.258,0.467-0.323,0.791h2.029l-0.15,0.518H8.761c-0.007,0.123-0.011,0.254-0.011,0.393
		c0,0.063,0.001,0.123,0.004,0.182h2.109l-0.15,0.516H8.809c0.059,0.318,0.162,0.594,0.311,0.826
		c0.245,0.389,0.61,0.584,1.099,0.584c0.45,0,0.792-0.205,1.026-0.617C11.365,13.979,11.459,13.691,11.518,13.342z M14.908,1.233
		v3.094l2.605-0.401v2.977h2.252v11.866H0.234V6.902l0,0V6.638L14.908,1.233z M3.738,6.049L14.25,4.428V2.174L3.738,6.049z
		 M14.018,12.627c0-2.215-1.799-4.016-4.019-4.016c-2.219,0-4.019,1.8-4.019,4.016c0,2.223,1.799,4.021,4.019,4.021
		C12.219,16.648,14.018,14.85,14.018,12.627z M2.524,6.902h14.331v-2.21L2.524,6.902z"/>
</g>
</svg>
